<svg width="18" height="22" viewBox="0 0 18 22" fill="none" xmlns="http://www.w3.org/2000/svg">
<path d="M17 9.18182C17 15.5455 9 21 9 21C9 21 1 15.5455 1 9.18182C1 7.01187 1.84285 4.93079 3.34315 3.3964C4.84344 1.86201 6.87827 1 9 1C11.1217 1 13.1566 1.86201 14.6569 3.3964C16.1571 4.93079 17 7.01187 17 9.18182Z" stroke="#4099FF" stroke-width="1.5" stroke-linecap="round" stroke-linejoin="round"/>
<path d="M9 11.9091C10.4728 11.9091 11.6667 10.688 11.6667 9.18182C11.6667 7.67559 10.4728 6.45455 9 6.45455C7.52724 6.45455 6.33333 7.67559 6.33333 9.18182C6.33333 10.688 7.52724 11.9091 9 11.9091Z" stroke="#4099FF" stroke-width="1.5" stroke-linecap="round" stroke-linejoin="round"/>
</svg>
